# xmcd CD database file
#
# Track frame offsets:
#	150
#	20760
#	44500
#	65058
#
# Disc length: 1182 seconds
#
# Revision: 0
# Processed by: cddbd v1.5.1PL0 Copyright (c) Steve Scherf et al.
# Submitted via: CDex 1.51
#
DISCID=37049c04
DTITLE=つじあやの - ゆびきり/星降る夜のクリスマス
DYEAR=2005
DGENRE=JPop
TTITLE0=ゆびきり
TTITLE1=星降る夜のクリスマス
TTITLE2=ゆびきり instrumental
TTITLE3=星降る夜のクリスマス instrumental
EXTD=YEAR: 2005
EXTT0=
EXTT1=
EXTT2=
EXTT3=
PLAYORDER=
